<svg xmlns="http://www.w3.org/2000/svg" width="24" height="24" viewBox="0 0 24 24">
    <g fill="none" fill-rule="evenodd">
        <path d="M0 0h24v24H0z"/>
        <path fill="#2057AC" d="M12.005 12C11.762 11.752 7.51 7.545 6 6.043l2.805-2.784c.15-.14.435-.259.64-.259h5.088c.212 0 .496.118.64.259L18 6.064c-1.477 1.46-5.744 5.688-5.995 5.936zm11.879.019a.39.39 0 0 1 0 .556L15.46 20.72c-.159.156-.467.281-.691.281H9.23c-.222 0-.534-.125-.696-.28L.121 12.574a.38.38 0 0 1 0-.556L4.28 8l7.738 7.496 7.728-7.476 4.139 3.999z"/>
    </g>
</svg>
