<svg xmlns="http://www.w3.org/2000/svg" width="211" height="35" viewBox="0 0 211 35">
    <g fill="none" fill-rule="evenodd">
        <path fill="#006599" d="M23.204 19.217c.512-.513 9.188-9.257 12.192-12.276l-5.749-5.8c-.294-.292-.87-.536-1.302-.536H18c-.42 0-1 .244-1.303.535l-5.705 5.757c3.07 3.107 11.717 11.807 12.211 12.32"/>
        <path fill="#006599" d="M45.418 17.033l-7.747-7.798-14.466 14.58L8.718 9.195.935 17.033a.761.761 0 0 0 0 1.085L16.685 34c.303.304.887.548 1.301.548h10.37c.42 0 .997-.244 1.296-.548l15.766-15.882a.784.784 0 0 0 0-1.085"/>
        <path fill="#1A1919" d="M57.284 9.676a8.89 8.89 0 0 0 1.882-1.494A9.564 9.564 0 0 0 60.68 6.18c.607.433 1.186.775 1.741 1.005a59.261 59.261 0 0 1-1.544 1.858c-.461.542-1.155 1.207-2.064 1.992-.37-.394-.878-.844-1.53-1.36zm5.626-1.997c.57-.409 1.045-.844 1.399-1.284 1.639 1.4 2.834 2.452 3.586 3.166-.366.34-.822.833-1.374 1.474a20.873 20.873 0 0 0-1.742-1.79c-.698-.62-1.314-1.156-1.87-1.566zm-9.675 9.75c.257-.383.5-.855.734-1.4.253-.537.483-1.17.718-1.91.23-.747.371-1.248.43-1.507l.128-.607a9.77 9.77 0 0 0 1.765 1.005c-.082.26-.143.445-.177.575l-.557 1.833c-.338 1.053-.65 1.922-.939 2.596l-.395.926a9.816 9.816 0 0 0-.582-.645c-.175-.186-.548-.467-1.125-.865zm.024-7.985c.172-.189.337-.362.475-.528.155-.165.37-.5.664-1.024.173.139.301.254.394.312l.766.6.763.64.407.33c-.127.148-.302.383-.545.699-.235.305-.455.606-.65.902-.438-.47-.788-.797-1.045-1.008-.257-.222-.662-.525-1.23-.923zm7.468 3.813H59.2l-1.94.056v-1.845l1.94.06h2.644v-.344l-.046-1.54h1.962l-.04 1.54v.345h2.82l2.045-.061v1.845l-2.044-.056h-2.132c1.02 1.283 1.892 2.141 2.621 2.574.733.432 1.426.743 2.074.934-.369.442-.813 1.063-1.341 1.823-.932-.55-1.686-1.075-2.278-1.603-.59-.514-1.178-1.144-1.765-1.868v1.648l.064 2.231h-2.01l.07-2.23v-1.943a30.759 30.759 0 0 1-1.45 1.568c-.534.535-1.58 1.283-3.155 2.258-.14-.239-.279-.46-.439-.67-.143-.205-.478-.562-1.025-1.085.256-.058.627-.176 1.13-.341.482-.162 1.11-.573 1.862-1.238.756-.652 1.246-1.149 1.466-1.425l.495-.633zm-3.409-7.634c-.126.152-.322.384-.625.743-.292.354-.51.62-.652.812a30.392 30.392 0 0 0-.658-.773c-.242-.281-.73-.75-1.465-1.379.197-.168.407-.344.607-.528.206-.185.45-.5.754-.936 1.008.902 1.603 1.464 1.784 1.672l.255.306-.058-1.519 1.673.055h7.84l1.692-.054-.059 1.432v.528l.05 1.44H66.52l.03-1.203v-.444H59.2v.417l.045 1.162h-1.961l.034-1.406v-.325zM73.626 14.121c.302-.046.615-.09.964-.152.35-.046.546-.08.594-.102l.553-.154V8.8h-.626l-1.287.035V7.012l1.346.034h.567V5.003L75.694 3.7h1.922l-.036 1.357v1.989l1.753-.034v1.824L77.58 8.8V13.2a28.303 28.303 0 0 0 1.894-.666c-.049.267-.095.53-.14.792-.037.235-.047.48-.037.704v.512c-.577.19-1.516.49-2.816.936-1.297.432-2.017.68-2.143.713-.24-.75-.395-1.227-.477-1.45l-.236-.62zm12.82 4.781l.055-2.006V5.922l-.056-2.161h2.006l-.059 2.161v10.702l.059 2.278h-2.006zm-3.296-1.305l.034-2.327V6.78l-.044-2.283h2.005l-.052 2.117v8.749l.052 2.234H83.15zm-5.868-.343c.812-.466 1.38-.92 1.702-1.378.34-.46.568-1.051.708-1.79.143-.76.201-1.826.165-3.229-.06-1.691-.107-3.002-.129-3.918-.022-.91-.036-1.46-.036-1.643l-.078-1.572a12.12 12.12 0 0 0 2.098.073c.01.56.01 1.213.024 1.94.014.713.022 1.686.035 2.903.019 1.228.046 2.361.046 3.391 0 1.024-.059 1.904-.197 2.618-.129.714-.313 1.296-.546 1.755a5.939 5.939 0 0 1-.882 1.271c-.335.384-.822.797-1.448 1.227-.44-.572-.733-.933-.87-1.072l-.592-.576zM100.175 6.963h-3.256v1.138l.03 1.248h-2.074l.048-1.297V6.11L94.875 5l1.706.056h4.025c.046-.198.083-.384.105-.57.036-.197.056-.457.08-.772l.026-.43c.709.063 1.429.102 2.168.09-.027.235-.06.455-.084.678-.032.237-.09.564-.182 1.005h4.277l1.499-.047-.037 1.266v1.657l.037 1.428h-2.09l.048-1.428v-.97h-4.12l-.373 1.195c.465.071 1.047.078 1.74.078.069.506.13 1.01.212 1.51.092.52.198.962.327 1.38l.157.503c.435-.29.8-.56 1.082-.806.276-.257.635-.665 1.043-1.24.2.26.373.467.535.658.16.171.512.501 1.043.99-.902.76-1.86 1.462-2.841 2.095a3.9 3.9 0 0 0 .313.547c.115.176.41.47.858.878.465.41.926.724 1.394.97.45.237 1.004.413 1.644.543-.173.254-.313.49-.427.684-.104.204-.293.695-.57 1.5-.987-.421-1.985-1.032-3.014-1.778-1.02-.75-1.81-1.814-2.38-3.207-.578-1.379-.915-2.606-1.032-3.672l-.171-1.364c-.432.934-.743 1.564-.968 1.907l-.451.736v4.85c1.125-.82 1.777-1.357 1.995-1.587l.314-.367c.116.328.222.587.29.775.093.188.258.526.51 1.02-.372.344-.662.606-.844.757l-2.832 2.374-.546.514c-.407-.773-.681-1.262-.81-1.462l-.395-.585c.104-.115.172-.22.23-.305a.705.705 0 0 0 .109-.288 3.82 3.82 0 0 0 .034-.621v-2.707c-.814.81-1.488 1.408-2.01 1.819l-1.159.91a8.187 8.187 0 0 0-.362-.585c-.067-.107-.392-.504-.971-1.227a35.083 35.083 0 0 0 2.053-1.322c.754-.523 1.53-1.32 2.306-2.374.778-1.075 1.297-2.034 1.564-2.9l.245-.796zM113.77 13.865a5.888 5.888 0 0 0 1.093-1.016c.31-.399.638-.949.96-1.65.313-.716.514-1.193.592-1.46l.293-.997h-1.336l-1.032.049V6.886l.974.032h1.52V5.095l-.063-1.626h2.112l-.068 1.65v1.799h.966l.987-.032v1.905l-.987-.05h-.966v1.766c.352-.172.675-.384.987-.607.313.504.568.925.769 1.272.206.357.519.926.948 1.698-.602.414-1.15.843-1.668 1.274-.303-.819-.524-1.345-.664-1.591l-.372-.653v5.133l.069 1.944h-2.113l.064-1.953v-3.569c-.27.41-.573.828-.886 1.263-.32.42-.516.668-.587.749l-.422.422c-.487-.926-.751-1.44-.797-1.51l-.373-.514zm7.6-3.155a11.129 11.129 0 0 0 1.958-.717c.129.328.194.55.245.677.046.108.184.502.417 1.16.233.664.349 1.004.371 1.04l.313.995c-.624.27-1.288.56-1.99.9a19.74 19.74 0 0 0-.144-.844c-.058-.278-.2-.747-.42-1.368a20.299 20.299 0 0 0-.75-1.844zm-.246-4.015l1.545.072h2.727V5.095l-.058-1.568h2.05l-.057 1.604v1.636h.74l1.385-.072v1.988l-1.419-.058h-.706v8.724c0 .454-.026.735-.048.852-.02.118-.116.233-.289.34-.15.116-.473.246-.928.363-.473.126-1.138.176-2.008.142-.136-.741-.265-1.243-.383-1.509l-.289-.728c.255.026.49.048.696.06.209.025.359.025.43.025.438.022.683-.015.756-.098a.664.664 0 0 0 .104-.244c.01-.09.024-.232.024-.445V8.625h-2.727l-1.545.058V6.695zM146.564 12.19v-1.777h-2.517c1.331.926 2.017 1.407 2.048 1.43l.469.347zm-5.92 3.898h2.6v-1.44h-2.6v1.44zm-1.217-3.092l1.104.04h3.12l.93-.04c-.178-.161-.319-.29-.433-.384-.114-.102-.693-.528-1.772-1.288.358-.269.705-.57 1.067-.912h-3.02c.34.27.69.528 1.085.76-.25.257-.49.494-.713.704-.206.208-.67.573-1.368 1.12zm-1.959-.897a7.665 7.665 0 0 0 1.101-.597c.303-.21.524-.398.662-.576l.429-.514h-2.192V12.1zm2.47-4.957c.231.388.476.782.719 1.178-.219.13-.43.269-.624.413h3.536c-.138-.108-.303-.213-.473-.328.23-.305.359-.48.39-.55l.454-.713h-4.001zm-1.611 0h-1.696l-2.039.058V5.35l2.04.06h4.582c-.22-.42-.38-.69-.487-.83l-.381-.55c.776-.33 1.377-.63 1.83-.875.476.736.755 1.18.847 1.334l.371.665-.454.257h4.108l2.183-.061V7.2l-2.17-.058h-1.484l.438.312c-.414.634-.68 1.066-.834 1.279h1.589l1.799-.068-.059 1.901v7.322c0 .29-.048.5-.116.645-.08.137-.243.276-.5.418-.257.127-.519.22-.787.28-.26.047-.754.082-1.497.106a8.472 8.472 0 0 0-.082-.68 4.778 4.778 0 0 0-.162-.77l-.221-.735c.592.056.943.08 1.047.056.172-.012.264-.056.299-.115.048-.061.073-.213.073-.454v-4.087c-.328.376-.5.62-.57.715l-.384.621-.567-.518-.046 1.115v1.789l.046 1.472-1.091-.037h-3.618l-1.348.037.048-1.342v-1.838l-.048-1.279a5.27 5.27 0 0 1-.73.496 9.039 9.039 0 0 0-.356-.692l-.432-.677v4.28l.058 2.384h-2.158l.06-2.281v-6.63l-.06-1.502 1.671.068h1.683c-.362-.646-.548-.985-.58-1.031l-.218-.28.403-.28zM156.445 18.12l-1.732.058v-2.056l1.732.069h2.97v-2.82c-.667.285-1.1.495-1.312.622l-.582.364c-.508-1.78-.904-3.112-1.182-4.002a47.36 47.36 0 0 0-.694-2.036l-.548-1.342c.674-.212 1.151-.383 1.402-.525l.56-.293c.152.42.395 1.112.741 2.046.348.936.568 1.554.675 1.837l.441 1.367c.218.675.332 1.063.371 1.193l.129.562V6.021l-.061-2.05h2.194l-.058 2.05v10.17h1.414V6.043l-.059-2.046h2.185l-.06 2.046v7.165c.184-.36.334-.665.448-.902.107-.247.27-.63.478-1.163.209-.54.415-1.15.625-1.839.2-.68.365-1.298.466-1.835l.218-1.123c.57.189 1.29.374 2.168.573a87.255 87.255 0 0 1-.626 2.222c-.182.56-.417 1.227-.68 1.963-.292.74-.537 1.346-.755 1.823a56.75 56.75 0 0 1-1.023 2.085c-.403-.342-.856-.655-1.32-.975v2.154h2.815l1.974-.069v2.056l-1.974-.059h-11.34zM176.812 3.285c.606.217 1.02.337 1.227.37l.766.119c-.102.374-.17.581-.194.653l-.245.728h1.809l1.276-.051v1.794l-1.065-.049h-2.75c-.245.489-.487.98-.769 1.472h3.39l1.01-.032v1.775l-1.01-.044h-1.173v1.518h1.14l1.227-.037v1.87l-1.194-.034h-1.173v2.454c.72-.405 1.195-.723 1.438-.922l.64-.512c-.024.361-.034.699-.056 1.029-.012.327-.012.55 0 .652l.056.538c-1.438.914-2.624 1.73-3.55 2.469a13.913 13.913 0 0 0-.206-.77 4.904 4.904 0 0 0-.282-.75l-.334-.73c.16-.102.286-.207.359-.315.083-.102.116-.278.116-.52v-2.623h-1.07l-1.296.034v-1.87l1.471.037h.895V10.02h-.475l-.815.044v-.411c-.264.34-.543.63-.832.915-.048-.223-.094-.421-.14-.587-.036-.164-.22-.746-.548-1.754.153-.114.351-.293.604-.503.26-.21.535-.699.873-1.434.335-.741.58-1.526.741-2.33l.139-.675zm6.855 6.98h3.785V8.786h-3.785v1.477zm0-3.17h3.785V5.623h-3.785v1.474zm-1.775-3.277l1.343.034h4.593l1.464-.034-.046 1.43v5.52l.046 1.131-.972-.046h-1.545c.034.257.06.467.092.667.037.198.076.362.129.477l.199.577c.393-.29.744-.55 1.03-.772.3-.237.601-.526.953-.902.313.535.556.855.708.958l.522.425c-.597.501-1.426 1.13-2.483 1.878.172.271.356.552.567.83.206.282.49.55.837.817a5.17 5.17 0 0 0 1.202.66c-.145.208-.356.49-.635.85-.264.377-.485.692-.65.937a40.51 40.51 0 0 1-1.358-1.076c-.565-.457-1.113-1.229-1.659-2.305-.53-1.088-.89-2.068-1.054-2.98l-.209-1.041h-1.3v4.305a21.309 21.309 0 0 0 1.987-1.44c0 .35-.012.668-.012.936-.013.282 0 .442.012.492l.077.571c-1.345.959-2.434 1.814-3.269 2.563-.233-.668-.419-1.113-.547-1.335l-.384-.646c.165-.127.284-.254.34-.349.044-.103.08-.257.08-.455V5.131l-.058-1.313zM202.017 4.192l1.326.059h5.031l1.378-.06V6.16l-1.4-.083h-5.038l-1.297.083V4.192zm-.718 4.587l1.428.056h6.356l1.388-.056v1.94l-1.435-.049h-1.44v7.414a1.1 1.1 0 0 1-.126.55c-.08.166-.371.291-.88.387-.5.092-.837.151-1.012.163-.176.025-.484.032-.935.025-.03-.188-.05-.409-.088-.643a3.235 3.235 0 0 0-.181-.723l-.27-.788c.58.098.939.127 1.058.108.22-.022.359-.086.432-.189.076-.095.11-.246.11-.454v-5.85h-2.89l-1.515.05V8.778zm-1.741-5.38c.22.27.415.503.592.7.186.198.499.452.916.797a122.087 122.087 0 0 1-2.587 2.012c-.604.455-1.288.907-2.066 1.41-.37-.65-.752-1.251-1.132-1.808.785-.33 1.537-.749 2.257-1.252.708-.513 1.231-.96 1.566-1.342l.454-.516zm-4.549 8.643c1.024-.597 1.927-1.372 2.74-2.327.825-.973 1.333-1.685 1.555-2.144l.356-.722c.734.607 1.185.959 1.35 1.056l.427.262c-.708.89-1.39 1.733-2.052 2.513v7.123l.059 1.406h-1.974l.068-1.45v-5.124c-.51.495-1.052.98-1.61 1.463-.083-.26-.163-.505-.267-.76-.08-.245-.298-.676-.652-1.296zM54.617 27.99c.047.338.13.582.267.751.243.3.675.442 1.262.442.349 0 .64-.036.863-.117.426-.151.632-.422.632-.841 0-.234-.103-.42-.31-.564-.209-.128-.546-.23-.987-.338l-.764-.178c-.756-.159-1.265-.35-1.556-.548-.486-.337-.727-.862-.727-1.589 0-.643.232-1.193.695-1.625.475-.435 1.172-.64 2.076-.64.766 0 1.416.197 1.944.606.548.41.827 1.006.851 1.78h-1.452c-.024-.448-.218-.751-.567-.94-.23-.125-.524-.186-.868-.186-.396 0-.706.079-.941.247a.728.728 0 0 0-.35.65c0 .272.115.475.35.59.138.093.449.186.94.3l1.24.306c.543.127.964.316 1.241.526.427.34.653.843.653 1.484 0 .664-.257 1.227-.77 1.67-.498.434-1.217.657-2.133.657-.95 0-1.68-.223-2.228-.658-.532-.428-.813-1.024-.813-1.784h1.453zM63.746 24.892c.274.107.497.29.672.523.152.2.244.413.27.62.03.216.042.56.042 1.045v3.168h-1.425v-3.286c0-.295-.046-.528-.138-.7-.129-.258-.374-.375-.73-.375-.371 0-.652.117-.841.374-.195.247-.284.609-.284 1.061v2.926H59.92v-7.275h1.392v2.584c.196-.311.44-.538.706-.655.254-.118.547-.186.846-.186.324 0 .616.056.882.176M69.15 24.961c.356.166.652.433.88.797.21.315.349.685.407 1.11.039.247.058.606.049 1.076h-3.657c.015.535.19.926.503 1.123.195.138.431.208.693.208.288 0 .52-.083.708-.246.09-.091.184-.21.257-.36h1.423c-.034.316-.196.628-.488.968-.462.514-1.103.785-1.925.785-.683 0-1.284-.22-1.799-.665-.521-.445-.785-1.159-.785-2.154 0-.938.244-1.647.693-2.15.478-.492 1.091-.74 1.833-.74.453 0 .849.072 1.208.248zm-1.962 1.218c-.17.21-.277.477-.32.83h2.165c-.022-.374-.14-.654-.337-.846-.196-.197-.45-.288-.754-.288-.322 0-.565.106-.754.304zM75.541 25.171c.35.282.524.76.524 1.44v3.637h-1.428v-3.287c0-.281-.034-.504-.117-.655-.128-.27-.393-.409-.776-.409-.475 0-.8.198-.977.611-.092.209-.138.487-.138.815v2.925h-1.39V24.87h1.344v.78c.184-.276.349-.479.509-.596.29-.222.652-.328 1.103-.328.546 0 .997.144 1.346.445M76.853 26.004v-1.149h4.335v1.171l-2.713 3.051h2.818v1.171h-4.627v-1.102l2.75-3.142zM85.83 24.892c.265.107.487.29.66.523.152.2.244.413.278.62.022.216.049.56.049 1.045v3.168h-1.428v-3.286c0-.295-.044-.528-.15-.7-.13-.258-.371-.375-.72-.375-.381 0-.658.117-.847.374-.184.247-.291.609-.291 1.061v2.926h-1.39v-7.275h1.39v2.584c.208-.311.444-.538.708-.655a2.08 2.08 0 0 1 .846-.186c.325 0 .616.056.895.176M91.236 24.961c.349.166.633.433.865.797.221.315.364.685.408 1.11.049.247.058.606.049 1.076h-3.655c.027.535.182.926.5 1.123.196.138.426.208.706.208.288 0 .523-.083.693-.246.094-.091.186-.21.26-.36h1.423c-.02.316-.194.628-.486.968-.463.514-1.103.785-1.925.785-.671 0-1.273-.22-1.796-.665-.524-.445-.777-1.159-.777-2.154 0-.938.23-1.647.694-2.15.476-.492 1.08-.74 1.833-.74.441 0 .835.072 1.208.248zm-1.962 1.218c-.174.21-.29.477-.335.83h2.166c-.022-.374-.126-.654-.334-.846-.197-.197-.442-.288-.743-.288-.327 0-.58.106-.754.304zM97.613 25.171c.356.282.536.76.536 1.44v3.637h-1.44v-3.287c0-.281-.025-.504-.107-.655-.139-.27-.403-.409-.784-.409-.477 0-.8.198-.977.611-.094.209-.14.487-.14.815v2.925h-1.39V24.87h1.355v.78c.175-.276.352-.479.498-.596.293-.222.662-.328 1.103-.328.548 0 .999.144 1.346.445M106.685 23.152c.276.102.51.276.693.498.162.186.279.384.37.61.105.236.144.493.144.771 0 .352-.082.69-.255 1.02-.176.337-.465.572-.86.714.335.127.567.325.705.571.14.255.214.631.214 1.135v.501c0 .328.007.547.031.677a.65.65 0 0 0 .276.409v.19h-1.658c-.041-.166-.078-.294-.107-.398a4.299 4.299 0 0 1-.053-.621l-.01-.68c-.014-.462-.094-.782-.257-.934-.165-.149-.463-.232-.905-.232h-1.566v2.865h-1.471V22.95h3.547c.51.014.895.08 1.162.203zm-3.238 1.06v1.966h1.717c.337 0 .59-.034.767-.12.3-.14.45-.418.45-.814 0-.445-.15-.748-.44-.89-.161-.095-.406-.141-.729-.141h-1.765zM110.281 24.856v3.24c0 .314.024.547.105.699.113.273.37.41.74.41.477 0 .8-.198.986-.582.092-.213.138-.494.138-.833v-2.934h1.417v5.393h-1.359v-.758a.929.929 0 0 0-.104.137.747.747 0 0 1-.184.223c-.211.197-.432.325-.638.408a2.514 2.514 0 0 1-.708.107c-.788 0-1.336-.283-1.6-.868-.162-.313-.233-.782-.233-1.403v-3.24h1.44zM117.783 24.727c.014 0 .058 0 .12.012v1.44c-.083-.014-.168-.014-.236-.027h-.163c-.567 0-.938.189-1.135.553-.106.21-.16.523-.16.956v2.588h-1.406v-5.392h1.331v.934c.226-.362.408-.607.56-.736.267-.223.602-.328 1.021-.328h.068zM120.624 26.962c.256-.04.445-.069.56-.117.197-.096.287-.223.287-.411 0-.223-.07-.36-.23-.443-.153-.095-.371-.14-.664-.14-.333 0-.554.091-.706.258-.092.115-.16.28-.197.488h-1.343c.029-.464.16-.853.395-1.168.369-.467.999-.701 1.898-.701.592 0 1.102.114 1.567.349.454.232.674.682.674 1.325v2.466c0 .174 0 .384.015.622.01.183.032.312.077.383a.597.597 0 0 0 .212.161v.216h-1.52c-.037-.118-.074-.216-.096-.32-.01-.093-.024-.197-.033-.326a2.549 2.549 0 0 1-.675.538 1.91 1.91 0 0 1-1.018.266c-.477 0-.882-.136-1.195-.418-.316-.283-.463-.667-.463-1.18 0-.67.242-1.149.754-1.44.278-.162.681-.279 1.229-.34l.472-.068zm.847.664c-.09.047-.184.096-.264.133-.095.032-.211.068-.371.09l-.315.059a2.683 2.683 0 0 0-.64.198.665.665 0 0 0-.32.596c0 .244.067.423.198.528a.779.779 0 0 0 .485.151c.303 0 .58-.083.825-.256.264-.186.392-.501.402-.985v-.514zM125.336 30.248h-1.407V22.95h1.407zM129.905 23.722c.577-.608 1.335-.9 2.25-.9 1.208 0 2.102.4 2.667 1.203.303.448.478.9.5 1.36h-1.52c-.093-.355-.219-.612-.371-.797-.28-.316-.684-.467-1.23-.467-.545 0-.975.222-1.285.665-.328.445-.488 1.075-.488 1.894s.175 1.425.51 1.838a1.57 1.57 0 0 0 1.277.606c.532 0 .927-.161 1.206-.515.162-.189.288-.467.38-.851h1.499c-.128.792-.466 1.435-1 1.939-.533.504-1.226.75-2.077.75-1.033 0-1.855-.342-2.447-1.007-.59-.675-.89-1.601-.89-2.785 0-1.26.335-2.258 1.019-2.933M140.599 29.593c-.452.56-1.135.84-2.054.84-.914 0-1.6-.28-2.049-.84-.466-.563-.674-1.243-.674-2.035 0-.771.208-1.45.674-2.026.448-.557 1.135-.853 2.05-.853.918 0 1.601.296 2.053.853.453.577.683 1.255.683 2.026 0 .792-.23 1.472-.683 2.035zm-1.11-.783c.205-.29.321-.713.321-1.252 0-.542-.116-.948-.322-1.253-.22-.291-.538-.43-.952-.43-.408 0-.719.139-.94.43-.22.305-.336.71-.336 1.253 0 .539.116.961.337 1.252.22.29.53.443.939.443.414 0 .731-.152.952-.443zM148.74 24.87c.235.106.446.257.63.489.148.184.254.42.303.69.029.175.044.444.044.796v3.403h-1.436v-3.44c0-.197-.036-.373-.095-.503-.125-.257-.36-.374-.698-.374-.383 0-.65.164-.788.48a1.454 1.454 0 0 0-.116.62v3.217h-1.414v-3.217c0-.315-.023-.55-.094-.689-.114-.269-.345-.401-.696-.401-.393 0-.657.132-.8.401-.07.14-.117.362-.117.668v3.238h-1.413V24.87h1.355v.78c.175-.276.337-.479.5-.596.266-.223.625-.316 1.057-.316.393 0 .73.083.986.272.207.161.357.384.45.64.186-.315.419-.548.688-.69.298-.15.611-.222.962-.222.24 0 .471.046.692.132M157.477 24.87c.235.106.441.257.626.489.148.184.242.42.303.69.034.175.044.444.044.796l-.01 3.403h-1.426v-3.44a1.11 1.11 0 0 0-.104-.503c-.117-.257-.351-.374-.686-.374-.383 0-.648.164-.8.48a1.709 1.709 0 0 0-.12.62v3.217h-1.4v-3.217c0-.315-.035-.55-.095-.689-.124-.269-.345-.401-.694-.401-.395 0-.66.132-.8.401-.068.14-.114.362-.114.668v3.238h-1.418V24.87h1.36v.78c.172-.276.332-.479.5-.596.252-.223.615-.316 1.042-.316.405 0 .74.083.997.272.196.161.346.384.448.64.19-.315.422-.548.689-.69a2.058 2.058 0 0 1 1.658-.09M162.845 24.961c.357.166.653.433.88.797.212.315.35.685.41 1.11.047.247.056.606.047 1.076h-3.654c.026.535.181.926.499 1.123.196.138.427.208.693.208.289 0 .524-.083.698-.246.105-.091.183-.21.267-.36h1.427c-.037.316-.2.628-.5.968-.454.514-1.089.785-1.91.785-.69 0-1.291-.22-1.8-.665-.539-.445-.79-1.159-.79-2.154 0-.938.235-1.647.708-2.15.462-.492 1.079-.74 1.818-.74.453 0 .851.072 1.207.248zm-1.961 1.218c-.175.21-.288.477-.32.83h2.165c-.024-.374-.136-.654-.346-.846-.195-.197-.442-.288-.745-.288a1 1 0 0 0-.754.304zM167.892 24.727c.012 0 .058 0 .113.012v1.44c-.076-.014-.162-.014-.23-.027h-.157c-.573 0-.958.189-1.14.553-.102.21-.165.523-.165.956v2.588h-1.401v-5.392h1.321v.934c.22-.362.417-.607.57-.736.267-.223.602-.328 1.02-.328h.069zM171.828 26.785a1.324 1.324 0 0 0-.214-.55c-.148-.21-.393-.316-.716-.316-.477 0-.802.232-.976.704-.092.245-.138.585-.138 1.005 0 .394.046.714.138.944.165.457.49.682.947.682.328 0 .563-.098.692-.272.15-.173.227-.41.251-.701h1.427a2.319 2.319 0 0 1-.462 1.217c-.445.621-1.08.934-1.95.934-.857 0-1.483-.256-1.888-.77-.41-.515-.615-1.193-.615-2.011 0-.925.228-1.645.674-2.15.45-.516 1.064-.775 1.852-.775.674 0 1.22.155 1.644.457.434.306.677.832.757 1.602h-1.423zM174.038 24.856h1.414v5.392h-1.414v-5.392zm1.414-.646h-1.414v-1.295h1.414v1.295zM178.704 26.962c.265-.04.441-.069.555-.117.199-.096.3-.223.3-.411 0-.223-.079-.36-.23-.443-.152-.095-.373-.14-.676-.14-.32 0-.553.091-.694.258a.846.846 0 0 0-.196.488h-1.353c.029-.464.17-.853.393-1.168.38-.467 1.006-.701 1.91-.701.58 0 1.104.114 1.557.349.451.232.684.682.684 1.325v2.466c0 .174 0 .384.01.622.012.183.036.312.082.383a.669.669 0 0 0 .2.161v.216h-1.521c-.034-.118-.07-.216-.083-.32-.022-.093-.022-.197-.034-.326-.2.222-.419.398-.674.538a1.97 1.97 0 0 1-1.02.266c-.486 0-.878-.136-1.194-.418-.324-.283-.477-.667-.477-1.18 0-.67.257-1.149.754-1.44.278-.162.696-.279 1.232-.34l.475-.068zm.846.664c-.08.047-.175.096-.269.133-.08.032-.206.068-.37.09l-.312.059c-.29.059-.499.127-.63.198-.22.13-.322.33-.322.596 0 .244.06.423.198.528.139.103.291.151.488.151.288 0 .57-.083.824-.256.25-.186.379-.501.393-.985v-.514zM183.422 30.248h-1.404V22.95h1.404zM192.703 23.734c.22.3.338.675.338 1.107 0 .445-.117.797-.338 1.078-.114.154-.315.293-.545.411.37.14.637.35.836.64.182.292.274.658.274 1.079 0 .42-.102.821-.32 1.156a2.172 2.172 0 0 1-.514.572 1.92 1.92 0 0 1-.822.365 4.91 4.91 0 0 1-1.033.107h-3.27v-7.3h3.513c.884.015 1.51.281 1.881.785zm-3.957 3.298v1.94h1.78c.323 0 .562-.033.739-.117.322-.163.487-.467.487-.911 0-.386-.165-.646-.475-.785-.162-.08-.41-.127-.722-.127h-1.81zm0-2.821v1.616h1.78c.323 0 .577-.06.773-.176.196-.13.288-.34.288-.643 0-.338-.127-.56-.395-.68a2.887 2.887 0 0 0-.843-.117h-1.603zM196.321 26.962c.267-.04.441-.069.555-.117.2-.096.304-.223.304-.411 0-.223-.08-.36-.233-.443-.148-.095-.369-.14-.672-.14-.324 0-.555.091-.695.258-.102.115-.163.28-.2.488h-1.357c.036-.464.174-.853.398-1.168.383-.467 1.01-.701 1.915-.701.577 0 1.099.114 1.552.349.453.232.686.682.686 1.325v2.466c0 .174 0 .384.012.622 0 .183.031.312.078.383a.602.602 0 0 0 .21.161v.216h-1.531c-.035-.118-.069-.216-.083-.32-.01-.093-.025-.197-.031-.326a2.55 2.55 0 0 1-.672.538 1.998 1.998 0 0 1-1.024.266c-.487 0-.882-.136-1.207-.418-.313-.283-.46-.667-.46-1.18 0-.67.253-1.149.763-1.44.265-.162.684-.279 1.217-.34l.475-.068zm.852.664c-.097.047-.182.096-.272.133-.082.032-.209.068-.37.09l-.3.059c-.302.059-.51.127-.64.198-.225.13-.327.33-.327.596 0 .244.06.423.187.528.14.103.303.151.49.151.298 0 .577-.083.834-.256.255-.186.383-.501.398-.985v-.514zM203.93 25.171c.35.282.524.76.524 1.44v3.637h-1.426v-3.287c0-.281-.048-.504-.117-.655-.142-.27-.395-.409-.79-.409-.463 0-.798.198-.973.611-.092.209-.138.487-.138.815v2.925h-1.394V24.87h1.356v.78c.176-.276.336-.479.511-.596.28-.222.638-.328 1.09-.328.544 0 1 .144 1.357.445M205.528 22.973h1.37V26.9l1.74-2.022h1.742l-1.88 2.058 1.95 3.313h-1.684l-1.284-2.308-.584.607v1.7h-1.37z"/>
    </g>
</svg>
