
<svg xmlns="http://www.w3.org/2000/svg" xmlns:xlink="http://www.w3.org/1999/xlink" width="2785" height="98" viewBox="0 0 2785 98"><svg width="42" height="20" viewBox="-1 -1 42 20" id="hot" x="0"><g fill="none" fill-rule="evenodd"><path d="M5 13L0 9.5 5 6V2h35v15H5v-4z" fill="#F2685C" fill-rule="nonzero"></path><text font-family="PingFangSC-Medium, PingFang SC" font-size="13" font-weight="400" fill="#FFF"><tspan x="9" y="14">HOT</tspan></text></g></svg><svg width="68" height="68" viewBox="-1 -1 68 68" id="icon-QA-service" x="42"><title>用卡Q&amp;A-icon</title><g fill-rule="nonzero" fill="none"><circle fill="#FFF" cx="33" cy="33" r="33"></circle><path d="M46.808 26.55a13.186 13.186 0 0 1 1.186 5.496c0 1.908-.398 3.753-1.19 5.493a14.008 14.008 0 0 1-3.23 4.465 15.04 15.04 0 0 1-4.764 2.993 15.843 15.843 0 0 1-5.814 1.093c-1.603 0-3.176-.234-4.682-.697l-4.344 2.47a1.049 1.049 0 0 1-.996.023 1.048 1.048 0 0 1-.571-.818l-.677-5.759C19.321 38.743 18 35.468 18 32.044c0-1.905.401-3.753 1.19-5.493a14.008 14.008 0 0 1 3.23-4.464 15.04 15.04 0 0 1 4.764-2.994A15.843 15.843 0 0 1 32.999 18c2.015 0 3.972.37 5.814 1.093a15.04 15.04 0 0 1 4.764 2.994 13.951 13.951 0 0 1 3.23 4.464zm-9.894 9.604c.516-.587.892-1.194 1.127-1.82.31-.821.466-1.773.466-2.855 0-2.046-.56-3.637-1.681-4.774-1.12-1.137-2.638-1.705-4.55-1.705-1.93 0-3.46.568-4.586 1.705C26.563 27.842 26 29.433 26 31.48c0 2.05.562 3.644 1.686 4.777 1.123 1.134 2.677 1.701 4.66 1.701 1.027 0 1.963-.18 2.808-.538 1.073.7 1.651 1.071 1.734 1.11.375.2.76.357 1.153.471L39 37.214a8.605 8.605 0 0 1-2.086-1.06zm-1.898-1.322a8.611 8.611 0 0 0-2.408-1.328L31.89 35a7.32 7.32 0 0 1 1.58.814 2.93 2.93 0 0 1-1.044.186c-.99 0-1.809-.376-2.456-1.128-.647-.753-.971-1.887-.971-3.403 0-1.493.324-2.61.971-3.354.647-.743 1.492-1.115 2.533-1.115 1.042 0 1.885.37 2.53 1.11.644.741.966 1.86.966 3.359 0 .726-.082 1.369-.246 1.93a3.951 3.951 0 0 1-.738 1.433z" fill="#15A085"></path></g></svg><svg width="21" height="23" viewBox="-1 -1 21 23" id="icon-architecture" x="110"><g fill="none" fill-rule="evenodd"><path d="M-2-1h24v24H-2z"></path><path fill="#16A085" d="M2 9v7h3V9H2zm6 0v7h3V9H8zM0 21h19v-3H0v3zM14 9v7h3V9h-3zM9.5 0L0 5v2h19V5L9.5 0z"></path></g></svg><svg width="26" height="26" viewBox="-1 -1 26 26" id="icon-arrow-down-blue" x="131"><g fill="none" fill-rule="evenodd"><path d="M0 0h24v24H0z"></path><path fill="#2057AC" d="M7.41 7.84L12 12.42l4.59-4.58L18 9.25l-6 6-6-6z"></path></g></svg><svg width="18" height="18" viewBox="-1 -1 18 18" id="icon-arrow-down-mini" x="157"><g fill="none" fill-rule="evenodd"><path d="M0 16h16V0H0z"></path><path fill="#FFF" d="M13 9.667L8 5 3 9.667 4.429 11 8 7.667 11.571 11z"></path></g></svg><svg width="26" height="26" viewBox="-1 -1 26 26" id="icon-arrow-left-active" x="175"><g fill="none" fill-rule="evenodd"><path d="M0 0h24v24H0z"></path><path fill="#2057AC" fill-rule="nonzero" d="M16.955 20.993c-.225 0-.452-.075-.642-.225l-9.933-7.99a1.025 1.025 0 0 1 0-1.596l9.89-7.948a1.024 1.024 0 0 1 1.283 1.596L8.656 11.98l8.941 7.193a1.024 1.024 0 0 1-.642 1.821z"></path></g></svg><svg width="26" height="26" viewBox="-1 -1 26 26" id="icon-arrow-left-disabled" x="201"><g fill="none" fill-rule="evenodd" opacity=".65"><path d="M0 0h24v24H0z"></path><path fill="#2057AC" fill-rule="nonzero" d="M16.955 20.993c-.225 0-.452-.075-.642-.225l-9.933-7.99a1.025 1.025 0 0 1 0-1.596l9.89-7.948a1.024 1.024 0 0 1 1.283 1.596L8.656 11.98l8.941 7.193a1.024 1.024 0 0 1-.642 1.821z"></path></g></svg><svg width="26" height="26" viewBox="-1 -1 26 26" id="icon-arrow-right-active" x="227"><g fill="none" fill-rule="evenodd"><path d="M0 0h24v24H0z"></path><path fill="#2057AC" fill-rule="nonzero" d="M7.045 20.993c.225 0 .453-.075.642-.225l9.933-7.99a1.025 1.025 0 0 0 0-1.596L7.73 3.234A1.024 1.024 0 0 0 6.448 4.83l8.897 7.151-8.942 7.19a1.024 1.024 0 0 0 .642 1.822z"></path></g></svg><svg width="26" height="26" viewBox="-1 -1 26 26" id="icon-arrow-right-disabled" x="253"><g fill="none" fill-rule="evenodd" opacity=".65"><path d="M0 0h24v24H0z"></path><path fill="#2057AC" fill-rule="nonzero" d="M7.045 20.993c.225 0 .453-.075.642-.225l9.933-7.99a1.025 1.025 0 0 0 0-1.596L7.73 3.234A1.024 1.024 0 0 0 6.448 4.83l8.897 7.151-8.942 7.19a1.024 1.024 0 0 0 .642 1.822z"></path></g></svg><svg width="18" height="18" viewBox="-1 -1 18 18" id="icon-arrow-right-mini" x="279"><g fill="none" fill-rule="evenodd"><path d="M0 16h16V0H0z"></path><path fill="#A8B7CE" d="M6.333 13L11 8 6.333 3 5 4.429 8.333 8 5 11.571z"></path></g></svg><svg width="18" height="18" viewBox="-1 -1 18 18" id="icon-arrow-right-mini-white" x="297"><g fill="none" fill-rule="evenodd"><path d="M0 16h16V0H0z"></path><path fill="#FFF" d="M6.333 13L11 8 6.333 3 5 4.429 8.333 8 5 11.571z" opacity=".8"></path></g></svg><svg width="26" height="26" viewBox="-1 -1 26 26" id="icon-arrow-right-simple" x="315"><path fill="#999EA6" d="M8.59 16.34l4.58-4.59-4.58-4.59L10 5.75l6 6-6 6z" fill-rule="evenodd"></path></svg><svg width="26" height="26" viewBox="-1 -1 26 26" id="icon-arrow-rignt-simple-red" x="341"><path fill="#FA2814" d="M8.59 16.34l4.58-4.59-4.58-4.59L10 5.75l6 6-6 6z" fill-rule="evenodd"></path></svg><svg width="18" height="18" viewBox="-1 -1 18 18" id="icon-arrow-up-mini" x="367"><g fill="none" fill-rule="evenodd"><path d="M0 16h16V0H0z"></path><path fill="#A8B7CE" d="M13 9.667L8 5 3 9.667 4.429 11 8 7.667 11.571 11z"></path></g></svg><svg width="26" height="26" viewBox="-1 -1 26 26" id="icon-article" x="385"><g fill="none" fill-rule="evenodd"><path d="M0 0h24v24H0z"></path><path fill="#92A1AE" d="M10 3h10v18H4V9h6V3zM8 3v4H4l4-4z"></path></g></svg><svg width="26" height="26" viewBox="-1 -1 26 26" id="icon-business" x="411"><g fill="none" fill-rule="evenodd"><path d="M0 0h24v24H0z"></path><path fill="#2057AC" d="M8 5h8V4H8v1zM6 5V2h12v3h4v6h-7V8H9v3H2V5h4zm3 8v3h6v-3h7v8H2v-8h7zm2-3h2v4h-2v-4z"></path></g></svg><svg width="26" height="26" viewBox="-1 -1 26 26" id="icon-calculator-deposit" x="437"><g fill="none" fill-rule="evenodd"><path d="M0 0h24v24H0z"></path><path fill="#2057AC" d="M5 8H3v2h2v2h2v-2h2V8H7V6H5v2zM1 3h10v18H1V3zm12 0h10v18H13V3zM3 14v2h6v-2H3zm12-5v2h6V9h-6zm0 4v2h6v-2h-6z"></path></g></svg><svg width="26" height="26" viewBox="-1 -1 26 26" id="icon-calculator-loan" x="463"><g fill="none" fill-rule="evenodd"><path d="M0 0h24v24H0z"></path><path fill="#2057AC" d="M5 11H3v2h2v2h2v-2h2v-2H7V9H5v2zm8-8h10v18H13V3zM1 3h10v18H1V3zm14 8v2h6v-2h-6z"></path></g></svg><svg width="26" height="26" viewBox="-1 -1 26 26" id="icon-calculator-title" x="489"><g fill="none" fill-rule="evenodd"><path d="M0 0h24v24H0z"></path><path fill="#2057AC" d="M5 7H3v2h2v2h2V9h2V7H7V5H5v2zM1 3h10v10H1V3zm0 12h10v6H1v-6zM13 3h10v18H13V3zM3 17v2h6v-2H3zm12-8v2h6V9h-6zm0 4v2h6v-2h-6z"></path></g></svg><svg width="32" height="32" viewBox="-1 -1 32 32" id="icon-calculator-tools" x="515"><g fill="none" fill-rule="evenodd"><path d="M0 0h30v30H0z"></path><path fill="#16A085" d="M4 2h22v27H4V2zm3 3v5h16V5H7zm0 8v3h4v-3H7zm6 0v3h4v-3h-4zm6 0v3h4v-3h-4zM7 18v3h4v-3H7zm6 0v3h4v-3h-4zm6 0v8h4v-8h-4zM7 23v3h4v-3H7zm6 0v3h4v-3h-4z"></path></g></svg><svg width="26" height="26" viewBox="-1 -1 26 26" id="icon-camera" x="547"><g fill="none" fill-rule="evenodd"><path d="M0 0h24v24H0z"></path><path fill="#2057AC" d="M9 3h6l2 2h5v16H2V5h5l2-2zm3 16a6 6 0 1 0 0-12 6 6 0 0 0 0 12zm0-2a4 4 0 1 1 0-8 4 4 0 0 1 0 8z"></path></g></svg><svg width="26" height="26" viewBox="-1 -1 26 26" id="icon-card-nav" x="573"><g fill="none" fill-rule="evenodd"><path d="M0 0h24v24H0z"></path><path fill="#2057AC" d="M22 7V3H2v4h20zm0 4v10H2V11h20zM4 16v3h5v-3H4z"></path></g></svg><svg width="68" height="68" viewBox="-1 -1 68 68" id="icon-card-service" x="599"><title>用卡指南-icon</title><g fill-rule="nonzero" fill="none"><circle fill="#FFF" cx="33" cy="33" r="33"></circle><g transform="translate(18 23)"><path fill="#3E7EE7" d="M0 0h30v20H0z"></path><path fill="#FFF" d="M5 4h20v2H5zM5 9h20v2H5zM5 14h20v2H5z"></path></g></g></svg><svg width="26" height="26" viewBox="-1 -1 26 26" id="icon-close-gray" x="667"><g fill="none" fill-rule="evenodd"><path d="M0 0h24v24H0z"></path><path fill="#A9AEB4" d="M19 6.41L17.59 5 12 10.59 6.41 5 5 6.41 10.59 12 5 17.59 6.41 19 12 13.41 17.59 19 19 17.59 13.41 12z"></path></g></svg><svg width="26" height="26" viewBox="-1 -1 26 26" id="icon-close-red-small" x="693"><g fill="none" fill-rule="evenodd"><path d="M0 0h24v24H0z"></path><path fill="#FA2814" d="M17.5 8.057L16.443 7l-4.193 4.193L8.057 7 7 8.057l4.193 4.193L7 16.443 8.057 17.5l4.193-4.193 4.193 4.193 1.057-1.057-4.193-4.193z"></path></g></svg><svg width="26" height="26" viewBox="-1 -1 26 26" id="icon-creditcard-accumulative-point-plan" x="719"><path d="M12 10.995c3.527 0 7.067-.634 9-1.995v1.995C21 12.65 16.969 14 12 14s-9-1.35-9-3.005V9c1.933 1.361 5.473 1.995 9 1.995zm0 9c3.527 0 7.067-.634 9-1.995v1.995C21 21.65 16.969 23 12 23s-9-1.35-9-3.005V18c1.933 1.361 5.473 1.995 9 1.995zm0-4c3.527 0 7.067-.634 9-1.995v1.995C21 17.65 16.969 19 12 19s-9-1.35-9-3.005V14c1.933 1.361 5.473 1.995 9 1.995zM12 2c4.969 0 9 1.258 9 2.8v1.4C21 7.742 16.969 9 12 9S3 7.742 3 6.2V4.8C3 3.258 7.031 2 12 2z" fill="#2057AC"></path></svg><svg width="26" height="26" viewBox="-1 -1 26 26" id="icon-creditcard-apply" x="745"><path d="M23 8H1V5h22v3zm0 2v9H1v-9h22zm-9 5v2h7v-2h-7z" fill="#2057AC"></path></svg><svg width="26" height="26" viewBox="-1 -1 26 26" id="icon-creditcard-charity" x="771"><path d="M3 1h18v22H3V1zm15 18v-2H6v2h12zM6 5v2h12V5H6zm0 6v2h12v-2H6z" fill="#2057AC"></path></svg><svg width="68" height="68" viewBox="-1 -1 68 68" id="icon-creditcard-constitution" x="797"><g fill="none"><circle fill="#FFF" cx="33" cy="33" r="33"></circle><path d="M35 20h4v2h5v25H23V22h5v-2h4v-1h3v1zm-8 7v2h14v-2H27zm0 6v2h14v-2H27zm0 6v2h14v-2H27z" fill="#FFAB00"></path></g></svg><svg width="26" height="26" viewBox="-1 -1 26 26" id="icon-creditcard-custom-service" x="865"><path d="M4 8.686V4h4.686L12 .686 15.314 4H20v4.686L23.314 12 20 15.314V20h-4.686L12 23.314 8.686 20H4v-4.686L.686 12 4 8.686zM12 17a5 5 0 1 0 0-10 5 5 0 0 0 0 10zm0-2a3 3 0 1 1 0-6 3 3 0 0 1 0 6z" fill="#2057AC"></path></svg><svg width="24" height="24" viewBox="-1 -1 24 24" id="icon-creditcard-more" x="891"><g fill="none" fill-rule="evenodd"><path d="M3.013 8.969h13.446c.002 0 .004-.005.002-.005L11.389 4.09a1.03 1.03 0 1 1 1.43-1.486l6.907 6.638a1.032 1.032 0 0 1 0 1.486L12.781 17.4a1.027 1.027 0 0 1-1.458-.028 1.032 1.032 0 0 1 .029-1.458l5.071-4.875c.003-.002 0-.004-.002-.004H2.99c-.548 0-.996-.43-1.029-.968A1.047 1.047 0 0 1 3.013 8.97z" fill="#2057AC" fill-rule="nonzero"></path><path d="M-1-2h24v24H-1z"></path></g></svg><svg width="26" height="26" viewBox="-1 -1 26 26" id="icon-creditcard-special-offer" x="915"><path d="M4 1h16v22l-8-5-8 5V1zm8 11l3.527 1.854-.674-3.927 2.853-2.781-3.943-.573L12 3l-1.763 3.573-3.943.573 2.853 2.781-.674 3.927L12 12z" fill="#2057AC"></path></svg><svg width="26" height="26" viewBox="-1 -1 26 26" id="icon-creditcard-vip" x="941"><path d="M23 8l-3.122-5.176L18 8h5zM8 8h8l-4.027-5.733L8 8zm3.137-6H5.389a1.25 1.25 0 0 0-.671.222l2.46 5.623L11.137 2m8.122.152A1.198 1.198 0 0 0 18.703 2h-5.894l3.959 5.845 2.49-5.693M11.993 23L16 9H8c2.654 9.333 3.985 14 3.992 14zM1 8h5L4.131 2.969 1 8zm9.683 13.688L7 9H1l9.683 12.688zM17 9l-3.834 13.024S22.962 9.11 23 9h-6z" fill="#2057AC"></path></svg><svg width="26" height="26" viewBox="-1 -1 26 26" id="icon-culture" x="967"><g fill="none" fill-rule="evenodd"><path d="M0 0h24v24H0z"></path><path fill="#56A192" d="M21 2v20H3V2h18zM6 4v8l3-2 3 2V4H6z"></path></g></svg><svg width="50" height="50" viewBox="-1 -1 50 50" id="icon-desk" x="993"><defs><rect id="a" width="12" height="14" x="18" y="2" rx="6"></rect></defs><g fill="none" fill-rule="evenodd"><path d="M0 0h48v48H0z"></path><path stroke="#92A1AE" stroke-width="2" d="M6 27v16h36V27H6z"></path><path fill="#92A1AE" d="M5 28h38v9H5z" opacity=".2"></path><path fill="#92A1AE" d="M2 26h44v2H2z"></path><use fill="#92A1AE" fill-opacity=".2" xlink:href="#a"></use><rect width="10" height="12" x="19" y="3" stroke="#92A1AE" stroke-width="2" rx="5"></rect><path stroke="#92A1AE" stroke-width="2" d="M34.8 27c-.93-4.588-4.99-8-9.8-8h-2c-4.81 0-8.87 3.412-9.8 8h21.6z"></path><path fill="#92A1AE" d="M9 30h30v2H9z"></path></g></svg><svg width="26" height="26" viewBox="-1 -1 26 26" id="icon-dollar" x="1043"><g fill="none" fill-rule="evenodd"><path d="M0 0h24v24H0z"></path><path fill="#2057AC" d="M13 17h1a3 3 0 0 0 0-6h-2v2h2a1 1 0 0 1 0 2H8v2h3v2h2v-2zM11 7h-1a3 3 0 1 0 0 6h2v-2h-2a1 1 0 0 1 0-2h6V7h-3V5h-2v2zm1 16C5.925 23 1 18.075 1 12S5.925 1 12 1s11 4.925 11 11-4.925 11-11 11z"></path></g></svg><svg width="26" height="26" viewBox="-1 -1 26 26" id="icon-download-green" x="1069"><g fill="none" fill-rule="evenodd"><path d="M0 0h24v24H0z"></path><path fill="#16A085" d="M19 9h-5V3h-4v6H5l7 7 7-7zM5 18v2h14v-2H5z"></path></g></svg><svg width="68" height="68" viewBox="-1 -1 68 68" id="icon-expense-service" x="1095"><title>资费标准-icon</title><g fill-rule="nonzero" fill="none"><circle fill="#FFF" cx="33" cy="33" r="33"></circle><path d="M33 19c-6.628 0-12 5.175-12 11.551C21 41.288 33 48 33 48s12-7.63 12-17.449C45 24.175 39.628 19 33 19zm1.053 13v2H38v2h-3.947v3H32v-3h-4v-2h4v-2h-4v-2h4l-3.414-3.03L30 25.717 33 28l2.928-2.282 1.493 1.251L34 30h4v2h-3.947z" fill="#FF5D34"></path></g></svg><svg width="26" height="26" viewBox="-1 -1 26 26" id="icon-filter-gray" x="1163"><g fill="none" fill-rule="evenodd"><path d="M0 0h24v24H0z"></path><path fill="#92A1AE" d="M7 20h10v-2H7v2zM2 6v2h20V6H2zm3 8h14v-2H5v2z"></path></g></svg><svg width="32" height="32" viewBox="-1 -1 32 32" id="icon-finance-tools" x="1189"><g fill="none" fill-rule="evenodd"><path d="M0 0h30v30H0z"></path><path fill="#56A192" d="M11.076 14H9v2h2.076c.436 2.838 2.699 5 5.424 5 1.262 0 2.425-.464 3.354-1.244l-1.048-1.747c-.616.617-1.423.991-2.306.991-1.63 0-3.001-1.275-3.39-3H21v-2h-7.89c.389-1.725 1.76-3 3.39-3 .883 0 1.69.374 2.306.99l1.048-1.746C18.925 9.464 17.762 9 16.5 9c-2.725 0-4.988 2.162-5.424 5zM29 4v22H1V4h28zM6 13H4v4h2v-4zm20 0h-2v4h2v-4z"></path></g></svg><svg width="26" height="26" viewBox="-1 -1 26 26" id="icon-fund-title" x="1221"><g fill="none" fill-rule="evenodd"><path d="M0 0h24v24H0z"></path><path fill="#2057AC" d="M15.703 11.7L18 14V8l-6-.01 2.29 2.294-4.776 4.777-2.829-2.829-1.414-1.414-3.926 3.926A11.02 11.02 0 0 1 1 12C1 5.925 5.925 1 12 1s11 4.925 11 11-4.925 11-11 11a11 11 0 0 1-9.894-6.188l3.165-3.166 4.243 4.243 1.414-1.414 4.775-4.775z"></path></g></svg><svg width="32" height="32" viewBox="-1 -1 32 32" id="icon-fund-tools" x="1247"><g fill="none" fill-rule="evenodd"><path d="M0 0h30v30H0z"></path><path fill="#F5A623" d="M2 3h26v24H2V3zm4 10v10h4V13H6zm7-6v16h4V7h-4zm7 10v6h4v-6h-4z"></path></g></svg><svg width="26" height="26" viewBox="-1 -1 26 26" id="icon-home" x="1279"><g fill="none" fill-rule="evenodd"><path d="M0 0h24v24H0z"></path><path fill="#2057AC" d="M21 22V11h3L12 1 0 11h3v11z"></path><path fill="#FEFEFE" d="M7 16h10v2H7z"></path></g></svg><svg width="18" height="22" viewBox="-1 -1 18 22" id="icon-honour" x="1305"><g fill="none" fill-rule="evenodd"><path d="M-4-2h24v24H-4z"></path><path fill="#3E7FE7" d="M16 0H0v20l8-4 8 4z"></path></g></svg><svg width="50" height="50" viewBox="-1 -1 50 50" id="icon-image" x="1323"><g fill="none" fill-rule="evenodd"><path d="M0 0h48v48H0z"></path><path stroke="#92A1AE" stroke-width="2" d="M5 9h38v30H5z"></path><path fill="#92A1AE" fill-rule="nonzero" d="M20.32 27.315L18 24l-7 10h4.692l4.628-6.685z"></path><path fill="#92A1AE" fill-rule="nonzero" d="M17 20a3 3 0 1 1 0-6 3 3 0 0 1 0 6z" opacity=".3"></path><path fill="#92A1AE" d="M27 21l9 13H18z"></path></g></svg><svg width="26" height="26" viewBox="-1 -1 26 26" id="icon-loan-title" x="1373"><g fill="none" fill-rule="evenodd"><path d="M0 0h24v24H0z"></path><path fill="#2057AC" d="M13 13v-1h3v-2h-2.586l2.122-2.121-1.415-1.415L12 8.586 9.879 6.464 8.464 7.88 10.586 10H8v2h3v1H8v2h3v2h2v-2h3v-2h-3zm-1 10C5.925 23 1 18.075 1 12S5.925 1 12 1s11 4.925 11 11-4.925 11-11 11z"></path></g></svg><svg width="32" height="32" viewBox="-1 -1 32 32" id="icon-loan-tools" x="1399"><g fill="none" fill-rule="evenodd"><path d="M0 0h30v30H0z"></path><path fill="#3E7FE7" d="M9.414 22L23.485 7.929l-1.414-1.414L8 20.585V17H6v7h7v-2H9.414zM15 30C6.716 30 0 23.284 0 15 0 6.716 6.716 0 15 0c8.284 0 15 6.716 15 15 0 8.284-6.716 15-15 15zm-5-16a4 4 0 1 0 0-8 4 4 0 0 0 0 8zm0-2a2 2 0 1 1 0-4 2 2 0 0 1 0 4zm10 12a4 4 0 1 0 0-8 4 4 0 0 0 0 8zm0-2a2 2 0 1 1 0-4 2 2 0 0 1 0 4z"></path></g></svg><svg width="26" height="26" viewBox="-1 -1 26 26" id="icon-logo" x="1431"><g fill="none" fill-rule="evenodd"><path d="M0 0h24v24H0z"></path><path fill="#2057AC" d="M12.005 12C11.762 11.752 7.51 7.545 6 6.043l2.805-2.784c.15-.14.435-.259.64-.259h5.088c.212 0 .496.118.64.259L18 6.064c-1.477 1.46-5.744 5.688-5.995 5.936zm11.879.019a.39.39 0 0 1 0 .556L15.46 20.72a1.13 1.13 0 0 1-.691.281H9.23a1.16 1.16 0 0 1-.696-.28L.121 12.574a.38.38 0 0 1 0-.556L4.28 8l7.738 7.496 7.728-7.476 4.139 3.999z"></path></g></svg><svg width="26" height="26" viewBox="-1 -1 26 26" id="icon-logo-footer" x="1457"><g fill="none" fill-rule="evenodd"><path d="M0 0h24v24H0z"></path><path fill="#2057AC" d="M12.003 12c-.182-.186-3.37-3.341-4.503-4.468l2.104-2.088a.807.807 0 0 1 .48-.194H13.9c.16 0 .372.089.48.194l2.12 2.104c-1.108 1.095-4.308 4.266-4.497 4.452zm8.91.014a.293.293 0 0 1 0 .417l-6.317 6.108a.85.85 0 0 1-.519.211H9.922a.867.867 0 0 1-.521-.21L3.09 12.43a.285.285 0 0 1 0-.417L6.21 9l5.804 5.622 5.796-5.607 3.104 3z"></path></g></svg><svg width="26" height="25" viewBox="-1 -1 26 25" id="icon-maplocation" x="1483"><g fill="none" fill-rule="evenodd"><path d="M0 0h24v23H0z"></path><path fill="#92A1AE" d="M7 19.167h10v1.916H7v-1.916zm5-.959c-4.667-3.28-7-6.794-7-10.541C5 3.962 8.134.958 12 .958s7 3.004 7 6.709c0 3.747-2.333 7.261-7 10.541zm0-7.666c1.657 0 3-1.288 3-2.875 0-1.588-1.343-2.875-3-2.875S9 6.079 9 7.667c0 1.587 1.343 2.875 3 2.875z"></path></g></svg><svg width="26" height="25" viewBox="-1 -1 26 25" id="icon-mapphone" x="1509"><g fill="none" fill-rule="evenodd"><path d="M0 0h24v23H0z"></path><path fill="#92A1AE" d="M7.218 10.47c1.28 2.41 3.342 4.378 5.858 5.613l1.955-1.874a.911.911 0 0 1 .907-.205c.995.316 2.07.486 3.173.486.489 0 .889.383.889.852v2.973c0 .468-.4.852-.889.852C10.764 19.167 4 12.684 4 4.685c0-.468.4-.852.889-.852H8c.489 0 .889.384.889.852a9.31 9.31 0 0 0 .507 3.041.83.83 0 0 1-.223.87l-1.955 1.873z"></path></g></svg><svg width="26" height="26" viewBox="-1 -1 26 26" id="icon-message-red" x="1535"><g fill="none" fill-rule="evenodd"><path d="M0 0h24v24H0z"></path><path fill="#FA2814" d="M20 2H4c-1.1 0-1.99.9-1.99 2L2 22l4-4h14c1.1 0 2-.9 2-2V4c0-1.1-.9-2-2-2z"></path><path fill="#FFF" d="M9 11H7V9h2zm4 0h-2V9h2zm4 0h-2V9h2z"></path></g></svg><svg width="26" height="26" viewBox="-1 -1 26 26" id="icon-more-footer" x="1561"><g fill="none" fill-rule="evenodd"><path d="M0 0h24v24H0z"></path><path fill="#FA2814" d="M6 10c-1.1 0-2 .9-2 2s.9 2 2 2 2-.9 2-2-.9-2-2-2zm12 0c-1.1 0-2 .9-2 2s.9 2 2 2 2-.9 2-2-.9-2-2-2zm-6 0c-1.1 0-2 .9-2 2s.9 2 2 2 2-.9 2-2-.9-2-2-2z"></path></g></svg><svg width="26" height="26" viewBox="-1 -1 26 26" id="icon-more-link-bule" x="1587"><path fill="#2057AC" d="M12 4l-1.41 1.41L16.17 11H4v2h12.17l-5.58 5.59L12 20l8-8z"></path></svg><svg width="26" height="26" viewBox="-1 -1 26 26" id="icon-more-link-red" x="1613"><g fill="none" fill-rule="evenodd"><path d="M0 0h24v24H0z"></path><path fill="#FA2814" d="M12 4l-1.41 1.41L16.17 11H4v2h12.17l-5.58 5.59L12 20l8-8z"></path></g></svg><svg width="26" height="26" viewBox="-1 -1 26 26" id="icon-more-link-white" x="1639"><g fill="none" fill-rule="evenodd"><path d="M0 0h24v24H0z"></path><path fill="#FFF" d="M12 4l-1.41 1.41L16.17 11H4v2h12.17l-5.58 5.59L12 20l8-8z"></path></g></svg><svg width="50" height="50" viewBox="-1 -1 50 50" id="icon-netbank-business" x="1665"><g fill="none" fill-rule="evenodd"><path d="M0 0h48v48H0z"></path><path stroke="#3E7FE7" stroke-width="2" d="M7 42h22V8H7v34zm22 0h12V16H29v26z"></path><path fill="#3E7FE7" d="M4 43v-2h40v2z"></path><path fill="#3E7FE7" d="M10 17v-5h7v5zm0 7v-5h7v5zm9-7v-5h7v5zm0 7v-5h7v5z" opacity=".2"></path></g></svg><svg width="50" height="50" viewBox="-1 -1 50 50" id="icon-netbank-credt" x="1715"><g fill="none" fill-rule="evenodd"><path d="M0 0h48v48H0z"></path><path stroke="#FA2814" stroke-width="2" d="M4 10v28h40V10H4z"></path><path fill="#FA2814" d="M5 17h38v6H5z" opacity=".2"></path><circle cx="9.5" cy="32.5" r="1.5" fill="#FA2814"></circle><circle cx="14.5" cy="32.5" r="1.5" fill="#FA2814"></circle><circle cx="19.5" cy="32.5" r="1.5" fill="#FA2814"></circle></g></svg><svg width="50" height="50" viewBox="-1 -1 50 50" id="icon-netbank-personal" x="1765"><g fill="none" fill-rule="evenodd"><path d="M0 0h48v48H0z"></path><path stroke="#16A085" stroke-width="2" d="M4 9v26h40V9H4z"></path><path fill="#16A085" d="M11 15h10v6H11z" opacity=".2"></path><path fill="#16A085" d="M23 34h2v8h-2z"></path><path fill="#16A085" d="M17 40h14v2H17zM3 28h42v2H3z"></path></g></svg><svg width="26" height="26" viewBox="-1 -1 26 26" id="icon-phone-footer-business" x="1815"><g fill="none" fill-rule="evenodd"><path d="M0 0h24v24H0z"></path><path fill="#2057AC" d="M4 1h16v22H4V1zm2 3v13h12V4H6zm4 15a1 1 0 0 0 0 2h4a1 1 0 0 0 0-2h-4z"></path></g></svg><svg width="26" height="26" viewBox="-1 -1 26 26" id="icon-phone-footer-person" x="1841"><g fill="none" fill-rule="evenodd"><path d="M0 0h24v24H0z"></path><path fill="#2057AC" d="M4 1h16v22H4V1zm2 3v11h12V4H6zm6 17a2 2 0 1 0 0-4 2 2 0 0 0 0 4z"></path></g></svg><svg width="26" height="26" viewBox="-1 -1 26 26" id="icon-phone-micro" x="1867"><g fill="none" fill-rule="evenodd"><path d="M0 0h24v24H0z"></path><path fill="#2057AC" d="M4 3h16v20H4V3zm0-3h2v3H4V0zm2 6v6h12V6H6z"></path></g></svg><svg width="50" height="50" viewBox="-1 -1 50 50" id="icon-phonebank" x="1893"><g fill="none" fill-rule="evenodd"><path d="M0 0h48v48H0z"></path><path stroke="#3E7FE7" stroke-width="2" d="M10 4v40h28V4H10z"></path><path fill="#3E7FE7" d="M13 7h22v25H13z" opacity=".2"></path><path fill="#3E7FE7" d="M21 38h6v3h-6zM9 34h30v2H9z"></path></g></svg><svg width="26" height="26" viewBox="-1 -1 26 26" id="icon-phylogeny" x="1943"><g fill="none" fill-rule="evenodd"><path d="M0 0h24v24H0z"></path><path fill="#FA2814" d="M15 5l-1-2H4v19h2v-7h6l1 2h8V5z"></path></g></svg><svg width="32" height="32" viewBox="-1 -1 32 32" id="icon-price-tools" x="1969"><g fill="none" fill-rule="evenodd"><path d="M0 0h30v30H0z"></path><path fill="#92A1AE" d="M2 8l13-8 13 8v20H2V8zm13 3a3 3 0 1 0 0-6 3 3 0 0 0 0 6zm-5 4v2h10v-2H10zm0 4v2h10v-2H10z"></path></g></svg><svg width="26" height="26" viewBox="-1 -1 26 26" id="icon-purse-title" x="2001"><g fill="none" fill-rule="evenodd"><path d="M0 0h24v24H0z"></path><path fill="#2057AC" d="M21 6H11v12h10v3H1V3h20v3zm-8 2h10v8H13V8zm2 3v2h3v-2h-3z"></path></g></svg><svg width="26" height="26" viewBox="-1 -1 26 26" id="icon-qrcode" x="2027"><g fill="none" fill-rule="evenodd"><path d="M0 0h24v24H0z"></path><path stroke="#555E6A" stroke-width="2" d="M3 3h7v7H3zm0 11h7v7H3z"></path><path fill="#555E6A" d="M13 13h3v3h-3zm7 0h2v3h-2zm-4 3h2v3h-2zm4 2h2v4h-2zm-7 1h3v3h-3z"></path><path fill="#555E6A" d="M18 20h3v2h-3z"></path><path stroke="#555E6A" stroke-width="2" d="M14 3h7v7h-7z"></path><path fill="#555E6A" d="M5 5h3v3H5zm0 11h3v3H5zM16 5h3v3h-3z"></path></g></svg><svg width="26" height="26" viewBox="-1 -1 26 26" id="icon-question-small" x="2053"><g fill="none" fill-rule="evenodd"><path d="M0 0h24v24H0z"></path><path fill="#92A1AE" d="M12 20c-4.41 0-8-3.59-8-8s3.59-8 8-8 8 3.59 8 8-3.59 8-8 8zm-1-2h2v-2h-2v2zm1-12c-2.21 0-4 1.79-4 4h2c0-1.1.9-2 2-2s2 .9 2 2c0 2-3 1.75-3 5h2c0-2.25 3-2.5 3-5 0-2.21-1.79-4-4-4z"></path></g></svg><svg width="26" height="26" viewBox="-1 -1 26 26" id="icon-ranking" x="2079"><g fill="none" fill-rule="evenodd"><path d="M0 0h24v24H0z"></path><path fill="#2057AC" d="M3 12h5v10H3V12zm7-10h5v20h-5V2zm7 4h5v16h-5V6z"></path></g></svg><svg width="26" height="26" viewBox="-1 -1 26 26" id="icon-recommend" x="2105"><g fill="none" fill-rule="evenodd"><circle cx="12" cy="12" r="12" fill="#3E7FE7"></circle><path fill="#FFF" d="M17 18l-5-3.18L7 18V6h10z"></path></g></svg><svg width="68" height="68" viewBox="-1 -1 68 68" id="icon-regulation-service" x="2131"><title>信用卡章程-icon</title><g fill-rule="nonzero" fill="none"><circle fill="#FFF" cx="33" cy="33" r="33"></circle><path d="M35 20h4v2h5v25H23V22h5v-2h4v-1h3v1zm-8 7v2h14v-2H27zm0 6v2h14v-2H27zm0 6v2h14v-2H27z" fill="#FFAB00"></path></g></svg><svg width="68" height="68" viewBox="-1 -1 68 68" id="icon-repay-service" x="2199"><title>还款指南-icon</title><g fill-rule="nonzero" fill="none"><circle fill="#FFF" cx="33" cy="33" r="33"></circle><path d="M18 23.807V26h30v-2.193C48 22.262 47.155 21 45.69 21H20.31C18.844 21 18 22.262 18 23.807zM47.9 29H18.004v13.193c0 1.545.845 2.807 2.31 2.807h25.38c.804 0 1.415-.387 1.808-.988C44.172 37.793 39.93 39 39.93 39v3.603l-5.773-6 5.769-4.8V35.4s7.053-1.023 7.974 7.637c.058-.27.1-.548.1-.844V29.4L47.9 29z" fill="#1EA0BE"></path></g></svg><svg width="26" height="26" viewBox="-1 -1 26 26" id="icon-report" x="2267"><g fill="none" fill-rule="evenodd"><path d="M0 0h24v24H0z"></path><path fill="#92A1AE" d="M3 8h7V2h11v20H3V8zm1-2l4-4v4H4z"></path></g></svg><svg width="26" height="26" viewBox="-1 -1 26 26" id="icon-return-red" x="2293"><g fill="none" fill-rule="evenodd"><path d="M0 0h24v24H0z"></path><g fill="#FA2814"><path d="M9 19h6a7 7 0 0 0 0-14H9v12h6a5 5 0 0 0 0-10H9z"></path><path d="M5 17h6v2H5zM4 6l6-5v10z"></path></g></g></svg><svg width="32" height="32" viewBox="-1 -1 32 32" id="icon-save-tools" x="2319"><g fill="none" fill-rule="evenodd"><path d="M0 0h30v30H0z"></path><path fill="#FF7551" d="M20.586 8L6.515 22.071l1.414 1.414L22 9.415V13h2V6h-7v2h3.586zM15 30C6.716 30 0 23.284 0 15 0 6.716 6.716 0 15 0c8.284 0 15 6.716 15 15 0 8.284-6.716 15-15 15zm-5-16a4 4 0 1 0 0-8 4 4 0 0 0 0 8zm0-2a2 2 0 1 1 0-4 2 2 0 0 1 0 4zm10 12a4 4 0 1 0 0-8 4 4 0 0 0 0 8zm0-2a2 2 0 1 1 0-4 2 2 0 0 1 0 4z"></path></g></svg><svg width="26" height="26" viewBox="-1 -1 26 26" id="icon-search-gray" x="2351"><g fill="none" fill-rule="evenodd"><path d="M0 0h24v24H0z" opacity=".1"></path><path fill="#A9AEB4" d="M16.618 18.032A9.001 9.001 0 0 1 4.636 4.636a9 9 0 0 1 13.396 11.982l4.282 4.281-1.415 1.415-4.281-4.282zm-.668-2.082a7 7 0 1 0-9.9-9.9 7 7 0 0 0 9.9 9.9z"></path></g></svg><svg width="26" height="26" viewBox="-1 -1 26 26" id="icon-search-nav" x="2377"><g fill="none" fill-rule="evenodd"><path d="M0 0h24v24H0z" opacity=".1"></path><path fill="#FA2814" d="M16.618 18.032A9.001 9.001 0 0 1 4.636 4.636a9 9 0 0 1 13.396 11.982l4.282 4.281-1.415 1.415-4.281-4.282zm-.668-2.082a7 7 0 1 0-9.9-9.9 7 7 0 0 0 9.9 9.9z"></path></g></svg><svg width="26" height="26" viewBox="-1 -1 26 26" id="icon-search-white" x="2403"><g fill="none" fill-rule="evenodd"><path d="M0 0h24v24H0z" opacity=".1"></path><path fill="#FFF" d="M16.618 18.032A9.001 9.001 0 0 1 4.636 4.636a9 9 0 0 1 13.396 11.982l4.282 4.281-1.415 1.415-4.281-4.282zm-.668-2.082a7 7 0 1 0-9.9-9.9 7 7 0 0 0 9.9 9.9z"></path></g></svg><svg width="98" height="98" viewBox="-1 -1 98 98" id="icon-security-shell" x="2429"><g fill="none" fill-rule="evenodd"><path d="M0 0h96v96H0z"></path><path fill="#2057AC" fill-rule="nonzero" d="M16 17l32-7 32 7v51L48 90 16 68V17zm2 1.61v48.338l30 20.625 30-20.625V18.61l-30-6.563-30 6.563z"></path><path stroke="#2057AC" stroke-width="4" d="M25 24.202v38.16l23 16.192 23-16.192v-38.16L48 19.05l-23 5.152z"></path><path fill="#2057AC" d="M52.476 33.188l4.014 4.084a.217.217 0 0 1 0 .303l-8.341 8.486a.208.208 0 0 1-.298 0l-8.341-8.486a.217.217 0 0 1 0-.303l4.014-4.084a.627.627 0 0 1 .447-.188h8.058a.63.63 0 0 1 .447.188zM52.029 57H43.97a.627.627 0 0 1-.447-.188l-11.462-11.66a.217.217 0 0 1 0-.304l5.511-5.606a.208.208 0 0 1 .298 0l9.98 10.152a.208.208 0 0 0 .298 0l9.98-10.152a.208.208 0 0 1 .298 0l5.511 5.606a.217.217 0 0 1 0 .304l-11.462 11.66a.627.627 0 0 1-.447.188z"></path></g></svg><svg width="26" height="26" viewBox="-1 -1 26 26" id="icon-security-title" x="2527"><g fill="none" fill-rule="evenodd"><path d="M0 0h24v24H0z"></path><path fill="#2057AC" d="M11 13.874V17h2v-3.126A4.002 4.002 0 0 0 12 6a4 4 0 0 0-1 7.874zM17 20H7v2H5v-2H1V3h22v17h-4v2h-2v-2zm-5-8a2 2 0 1 1 0-4 2 2 0 0 1 0 4z"></path></g></svg><svg width="26" height="26" viewBox="-1 -1 26 26" id="icon-share" x="2553"><g fill="none" fill-rule="evenodd"><path d="M0 0h24v24H0z"></path><path fill="#92A1AE" d="M12 7V3l10 7-10 7v-4H9V7h3zM9 7v6c-2.761 0-5 2.015-5 4.5 0 .634.146 1.237.408 1.784A7 7 0 0 1 9 7z"></path></g></svg><svg width="26" height="26" viewBox="-1 -1 26 26" id="icon-star-recommend" x="2579"><g fill="none" fill-rule="evenodd"><circle cx="12" cy="12" r="12" fill="#FF7551"></circle><path fill="#FFF" d="M16.07 18l-4.23-2.55L7.61 18l1.12-4.81L5 9.96l4.92-.42L11.84 5l1.92 4.53 4.92.42-3.73 3.23z"></path></g></svg><svg width="26" height="26" viewBox="-1 -1 26 26" id="icon-time-ex" x="2605"><g fill="none" fill-rule="evenodd"><path d="M0 0h24v24H0z"></path><path fill="#FFF" d="M13 12V7h-2v7h5v-2h-3zm-1 7c-3.868 0-7-3.133-7-7 0-3.868 3.132-7 7-7 3.867 0 7 3.132 7 7 0 3.867-3.133 7-7 7z" opacity=".6"></path></g></svg><svg width="26" height="26" viewBox="-1 -1 26 26" id="icon-time-grey" x="2631"><g fill="none" fill-rule="evenodd"><path d="M0 0h24v24H0z"></path><path fill="#999EA6" d="M13 12V7h-2v7h5v-2h-3zm-1 7c-3.868 0-7-3.133-7-7 0-3.868 3.132-7 7-7 3.867 0 7 3.132 7 7 0 3.867-3.133 7-7 7z" opacity=".6"></path></g></svg><svg width="26" height="26" viewBox="-1 -1 26 26" id="icon-village" x="2657"><g fill="none" fill-rule="evenodd"><path d="M0 0h24v24H0z"></path><path fill="#1EA0BE" d="M8 15.93A7.002 7.002 0 0 1 9 2a7 7 0 0 1 1 13.93V20h8v-3h-1v-5l1-1h3l1 1v5h-1v5H4v-2h4v-4.07zM19.5 10a1.5 1.5 0 1 1 0-3 1.5 1.5 0 0 1 0 3z"></path></g></svg><svg width="32" height="32" viewBox="-1 -1 32 32" id="icon-wechat-30" x="2683"><g fill="none" fill-rule="evenodd"><path d="M0 0h30v30H0z"></path><path fill="#18B61C" fill-rule="nonzero" d="M19.86 10.354c.302 0 .601.021.898.053C19.95 6.731 15.928 4 11.337 4 6.204 4 2 7.419 2 11.76c0 2.506 1.398 4.564 3.735 6.16l-.933 2.745 3.264-1.6c1.168.226 2.105.458 3.27.458.294 0 .585-.014.873-.036a6.645 6.645 0 0 1-.288-1.912c0-3.986 3.501-7.221 7.938-7.221zM14.837 7.88c.703 0 1.168.451 1.168 1.138 0 .684-.465 1.143-1.168 1.143-.7 0-1.401-.459-1.401-1.143 0-.687.701-1.138 1.401-1.138zm-6.534 2.28c-.7 0-1.406-.459-1.406-1.143 0-.687.706-1.138 1.406-1.138S9.47 8.33 9.47 9.018c0 .684-.465 1.143-1.166 1.143z"></path><path fill="#18B61C" fill-rule="nonzero" d="M28.38 17.466c0-3.648-3.735-6.622-7.93-6.622-4.444 0-7.943 2.974-7.943 6.622 0 3.653 3.5 6.62 7.943 6.62.929 0 1.867-.228 2.801-.457L25.813 25l-.703-2.28c1.874-1.374 3.27-3.196 3.27-5.253zm-10.505-1.142c-.465 0-.934-.452-.934-.914 0-.454.469-.912.934-.912.706 0 1.168.458 1.168.912 0 .462-.462.914-1.168.914zm5.136 0c-.462 0-.928-.452-.928-.914 0-.454.466-.912.928-.912.7 0 1.168.458 1.168.912 0 .462-.469.914-1.168.914z"></path></g></svg><svg width="26" height="26" viewBox="-1 -1 26 26" id="icon-workingtime" x="2715"><g fill="none" fill-rule="evenodd"><path d="M0 0h24v24H0z"></path><path fill="#92A1AE" d="M11 12v1h7v-2h-5V5h-2v7zm1-10c4.968 0 9 4.032 9 9s-4.032 9-9 9-9-4.032-9-9 4.032-9 9-9z"></path></g></svg><svg width="18" height="18" viewBox="-1 -1 18 18" id="page-1" x="2741"><g fill="none" fill-rule="evenodd"><path d="M-4-4h24v24H-4z"></path><path fill="#FA2814" d="M3.42 6.92c1.328 2.5 3.168 4.339 5.66 5.66l1.951-1.753c.24-.24.596-.32.907-.214a10.14 10.14 0 0 0 3.173.507c.489 0 .889.4.889.889v3.102c0 .489-.4.889-.889.889C6.764 16 0 9.236 0 .889 0 .4.4 0 .889 0H4c.489 0 .889.4.889.889 0 1.111.178 2.178.507 3.173a.892.892 0 0 1-.223.907L3.42 6.919z"></path></g></svg><svg width="26" height="26" viewBox="-1 -1 26 26" id="pins-blue" x="2759"><g fill="none" fill-rule="evenodd"><path d="M0 0h24v24H0z"></path><path fill="#2057AC" d="M12 21.58l-5.66-5.66c-3.12-3.12-3.12-8.19 0-11.31A7.98 7.98 0 0 1 12 2.27c2.05 0 4.1.78 5.66 2.34 3.12 3.12 3.12 8.19 0 11.31L12 21.58zM12 14a4 4 0 1 0 0-8 4 4 0 0 0 0 8z"></path></g></svg></svg>